<?xml version="1.0" encoding="UTF-8" standalone="no"?>
<!DOCTYPE svg PUBLIC "-//W3C//DTD SVG 1.1//EN" "http://www.w3.org/Graphics/SVG/1.1/DTD/svg11.dtd">
<svg width="100%" height="100%" viewBox="0 0 700 427" version="1.1" xmlns="http://www.w3.org/2000/svg" xmlns:xlink="http://www.w3.org/1999/xlink" xml:space="preserve" xmlns:serif="http://www.serif.com/" style="fill-rule:evenodd;clip-rule:evenodd;stroke-linejoin:round;stroke-miterlimit:2;">
    <g transform="matrix(1,0,0,1,-844.545,-3493.25)">
        <g id="logo-2.00" serif:id="logo 2.00" transform="matrix(0.952141,0,0,0.55883,1758.11,2607.98)">
            <rect x="-959.49" y="1584.14" width="735.185" height="762.594" style="fill:none;"/>
            <clipPath id="_clip1">
                <rect x="-959.49" y="1584.14" width="735.185" height="762.594"/>
            </clipPath>
            <g clip-path="url(#_clip1)">
                <g transform="matrix(1.49753,0,0,2.55151,-1116.03,-4979.7)">
                    <path d="M168.209,2733.54L208.971,2695.38C212.145,2697.1 215.775,2698.07 219.631,2698.07C227.186,2698.07 233.876,2694.33 237.955,2688.61L327.634,2721.92C328.801,2733.23 338.377,2742.07 350,2742.07C355.964,2742.07 361.389,2739.74 365.416,2735.95L453.06,2768.5C453.059,2768.6 453.058,2768.69 453.058,2768.79C453.058,2781.2 463.134,2791.28 475.544,2791.28C487.954,2791.28 498.029,2781.2 498.029,2768.79C498.029,2765.21 497.191,2761.82 495.699,2758.82L530.001,2723.36L530.001,2862.93L419.817,2862.93L419.817,2756.23L278.394,2756.23L278.394,2862.93L168.209,2862.93L168.209,2733.54ZM467.001,2748.02C463.609,2749.39 460.642,2751.58 458.324,2754.34L372.312,2722.39C372.426,2721.47 372.485,2720.54 372.485,2719.59C372.485,2707.18 362.41,2697.1 350,2697.1C342.187,2697.1 335.299,2701.09 331.269,2707.15L242.063,2674.02C241.26,2662.34 231.516,2653.1 219.631,2653.1C207.221,2653.1 197.146,2663.17 197.146,2675.58C197.146,2678.62 197.75,2681.52 198.844,2684.16L168.209,2712.84L168.209,2733.54L147.646,2752.79C148.841,2755.53 149.505,2758.56 149.505,2761.75C149.505,2774.16 139.429,2784.23 127.019,2784.23C114.609,2784.23 104.534,2774.16 104.534,2761.75C104.534,2749.34 114.609,2739.26 127.019,2739.26C130.73,2739.26 134.232,2740.16 137.319,2741.76L168.209,2712.84L168.209,2582.15L278.394,2582.15L278.394,2687.24L419.817,2687.24L419.817,2582.15L530.001,2582.15L530.001,2701.62L484.84,2748.31L483.435,2747.76L482.834,2676.31C490.59,2673.33 496.09,2665.8 496.09,2657C496.09,2645.56 486.804,2636.28 475.366,2636.28C463.929,2636.28 454.643,2645.56 454.643,2657C454.643,2665.22 459.438,2672.33 466.393,2675.66L467.001,2748.02ZM530.001,2701.62L552.825,2678.03C551.334,2675.02 550.495,2671.64 550.495,2668.06C550.495,2655.65 560.571,2645.57 572.981,2645.57C585.391,2645.57 595.466,2655.65 595.466,2668.06C595.466,2680.47 585.391,2690.54 572.981,2690.54C569.666,2690.54 566.518,2689.82 563.684,2688.53L530.001,2723.36L530.001,2701.62Z" style="fill:rgb(242,97,1);"/>
                </g>
            </g>
        </g>
    </g>
</svg>
